<svg width="25" height="23" viewBox="0 0 25 23" fill="none" xmlns="http://www.w3.org/2000/svg">
    <path fill-rule="evenodd" clip-rule="evenodd" d="M15.3135 1.91669C18.8469 1.91669 20.874 3.52573 20.874 6.32885V20.2592C20.874 20.8438 20.5469 21.3699 19.9969 21.6641C19.449 21.9593 18.7885 21.965 18.2344 21.6775L12.026 18.4508L5.76042 21.6842C5.48958 21.8241 5.19271 21.8951 4.89479 21.8951C4.5875 21.8951 4.28021 21.8194 4.00104 21.6679C3.45208 21.3737 3.125 20.8476 3.125 20.264V6.15348C3.125 3.46056 5.15313 1.91669 8.68958 1.91669H15.3135ZM15.3135 3.35419H8.68958C6.03438 3.35419 4.6875 4.29527 4.6875 6.15348V20.264C4.6875 20.3541 4.74375 20.4029 4.79063 20.4279C4.8375 20.4547 4.91146 20.4739 4.99688 20.4298L11.6448 16.9989C11.8823 16.8772 12.1729 16.8763 12.4115 16.9999L19.0021 20.425C19.0885 20.471 19.1625 20.4499 19.2094 20.424C19.2563 20.3981 19.3115 20.3493 19.3115 20.2592L19.3111 6.21965C19.3032 5.39484 19.1297 3.35419 15.3135 3.35419ZM15.7706 8.36483C16.2019 8.36483 16.5519 8.68683 16.5519 9.08358C16.5519 9.48033 16.2019 9.80233 15.7706 9.80233H8.14771C7.71646 9.80233 7.36646 9.48033 7.36646 9.08358C7.36646 8.68683 7.71646 8.36483 8.14771 8.36483H15.7706Z" fill="black"/>
</svg>
