<svg width="18" height="18" viewBox="0 0 18 18" fill="none" xmlns="http://www.w3.org/2000/svg">
    <path d="M11.3025 1.5C13.335 1.5 14.9775 2.3025 15 4.3425V15.7275C15 15.855 14.97 15.9825 14.91 16.095C14.8125 16.275 14.6475 16.41 14.445 16.47C14.25 16.53 14.0325 16.5 13.8525 16.395L8.9925 13.965L4.125 16.395C4.01325 16.4543 3.885 16.4925 3.7575 16.4925C3.3375 16.4925 3 16.1475 3 15.7275V4.3425C3 2.3025 4.65 1.5 6.675 1.5H11.3025ZM11.8125 6.03H6.165C5.8425 6.03 5.58 6.2925 5.58 6.6225C5.58 6.95175 5.8425 7.215 6.165 7.215H11.8125C12.135 7.215 12.3975 6.95175 12.3975 6.6225C12.3975 6.2925 12.135 6.03 11.8125 6.03Z" fill="black"/>
</svg>
