<svg width="20" height="20" viewBox="0 0 20 20" fill="none" xmlns="http://www.w3.org/2000/svg">
<path fill-rule="evenodd" clip-rule="evenodd" d="M5.20834 10.8333C8.59917 10.8333 8.75 11.9833 8.75 14.375C8.75 15.5733 8.75 16.4258 8.24667 17.05C7.6675 17.7692 6.61334 17.9167 5.20834 17.9167C3.80334 17.9167 2.74917 17.7692 2.17001 17.05C1.66667 16.4258 1.66667 15.5742 1.66667 14.3958L2.29167 14.375H1.66667C1.66667 11.9833 1.81751 10.8333 5.20834 10.8333ZM14.375 10.8333C17.7658 10.8333 17.9167 11.9833 17.9167 14.375C17.9167 15.5733 17.9167 16.4258 17.4133 17.05C16.8342 17.7692 15.78 17.9167 14.375 17.9167C12.97 17.9167 11.9158 17.7692 11.3367 17.05C10.8333 16.4258 10.8333 15.5742 10.8333 14.3958L11.4583 14.375H10.8333C10.8333 11.9833 10.9842 10.8333 14.375 10.8333ZM5.38014 12.0837L5.20834 12.0833C3.03419 12.0833 2.9227 12.2393 2.91698 14.0642L2.91733 14.7752C2.92128 15.501 2.94893 16.0252 3.14251 16.2667C3.36334 16.54 4.01917 16.6667 5.20834 16.6667C6.3975 16.6667 7.05334 16.5392 7.27417 16.2658C7.50001 15.985 7.5 15.3183 7.5 14.395C7.5 12.3115 7.5 12.0935 5.38014 12.0837ZM14.5468 12.0837L14.375 12.0833C12.2009 12.0833 12.0894 12.2393 12.0836 14.0642L12.084 14.7752C12.0879 15.501 12.1156 16.0252 12.3092 16.2667C12.53 16.54 13.1858 16.6667 14.375 16.6667C15.5642 16.6667 16.22 16.5392 16.4408 16.2658C16.6667 15.985 16.6667 15.3183 16.6667 14.395C16.6667 12.3115 16.6667 12.0935 14.5468 12.0837ZM5.20834 1.66667C8.59917 1.66667 8.75 2.81667 8.75 5.20833C8.75 6.40667 8.75 7.25917 8.24667 7.88333C7.6675 8.6025 6.61334 8.75 5.20834 8.75C3.80334 8.75 2.74917 8.6025 2.17001 7.88333C1.66667 7.25917 1.66667 6.4075 1.66667 5.22917L2.29167 5.20833H1.66667C1.66667 2.81667 1.81751 1.66667 5.20834 1.66667ZM14.375 1.66667C17.7658 1.66667 17.9167 2.81667 17.9167 5.20833C17.9167 6.40667 17.9167 7.25917 17.4133 7.88333C16.8342 8.6025 15.78 8.75 14.375 8.75C12.97 8.75 11.9158 8.6025 11.3367 7.88333C10.8333 7.25917 10.8333 6.4075 10.8333 5.22917L11.4583 5.20833H10.8333C10.8333 2.81667 10.9842 1.66667 14.375 1.66667ZM5.38014 2.91704L5.20834 2.91667C3.03419 2.91667 2.9227 3.07268 2.91698 4.89754L2.91733 5.60849C2.92128 6.33429 2.94893 6.85857 3.14251 7.1C3.36334 7.37333 4.01917 7.5 5.20834 7.5C6.3975 7.5 7.05334 7.3725 7.27417 7.09917C7.50001 6.81833 7.5 6.15167 7.5 5.22833C7.5 3.14483 7.5 2.92685 5.38014 2.91704ZM14.5468 2.91704L14.375 2.91667C12.2009 2.91667 12.0894 3.07268 12.0836 4.89754L12.084 5.60849C12.0879 6.33429 12.1156 6.85857 12.3092 7.1C12.53 7.37333 13.1858 7.5 14.375 7.5C15.5642 7.5 16.22 7.3725 16.4408 7.09917C16.6667 6.81833 16.6667 6.15167 16.6667 5.22833C16.6667 3.14483 16.6667 2.92685 14.5468 2.91704Z" fill="white"/>
</svg>
