<svg width="25" height="25" viewBox="0 0 25 25" fill="none" xmlns="http://www.w3.org/2000/svg">
    <path fill-rule="evenodd" clip-rule="evenodd" d="M6.5104 13.5416C10.7489 13.5416 10.9375 14.9791 10.9375 17.9687C10.9375 19.4666 10.9375 20.5323 10.3083 21.3125C9.58435 22.2114 8.26665 22.3958 6.5104 22.3958C4.75415 22.3958 3.43644 22.2114 2.71248 21.3125C2.08331 20.5323 2.08331 19.4677 2.08331 17.9948L2.86456 17.9687H2.08331C2.08331 14.9791 2.27185 13.5416 6.5104 13.5416ZM17.9687 13.5416C22.2073 13.5416 22.3958 14.9791 22.3958 17.9687C22.3958 19.4666 22.3958 20.5323 21.7666 21.3125C21.0427 22.2114 19.725 22.3958 17.9687 22.3958C16.2125 22.3958 14.8948 22.2114 14.1708 21.3125C13.5416 20.5323 13.5416 19.4677 13.5416 17.9948L14.3229 17.9687H13.5416C13.5416 14.9791 13.7302 13.5416 17.9687 13.5416ZM6.72515 15.1046L6.5104 15.1041C3.79271 15.1041 3.65335 15.2992 3.6462 17.5802L3.64664 18.4689C3.65157 19.3762 3.68614 20.0315 3.9281 20.3333C4.20415 20.675 5.02394 20.8333 6.5104 20.8333C7.99685 20.8333 8.81665 20.6739 9.09269 20.3323C9.37498 19.9812 9.37498 19.1479 9.37498 17.9937C9.37498 15.3893 9.37498 15.1169 6.72515 15.1046ZM18.1835 15.1046L17.9687 15.1041C15.251 15.1041 15.1117 15.2992 15.1045 17.5802L15.105 18.4689C15.1099 19.3762 15.1445 20.0315 15.3864 20.3333C15.6625 20.675 16.4823 20.8333 17.9687 20.8333C19.4552 20.8333 20.275 20.6739 20.551 20.3323C20.8333 19.9812 20.8333 19.1479 20.8333 17.9937C20.8333 15.3893 20.8333 15.1169 18.1835 15.1046ZM6.5104 2.08331C10.7489 2.08331 10.9375 3.52081 10.9375 6.5104C10.9375 8.00831 10.9375 9.07394 10.3083 9.85415C9.58435 10.7531 8.26665 10.9375 6.5104 10.9375C4.75415 10.9375 3.43644 10.7531 2.71248 9.85415C2.08331 9.07394 2.08331 8.00935 2.08331 6.53644L2.86456 6.5104H2.08331C2.08331 3.52081 2.27185 2.08331 6.5104 2.08331ZM17.9687 2.08331C22.2073 2.08331 22.3958 3.52081 22.3958 6.5104C22.3958 8.00831 22.3958 9.07394 21.7666 9.85415C21.0427 10.7531 19.725 10.9375 17.9687 10.9375C16.2125 10.9375 14.8948 10.7531 14.1708 9.85415C13.5416 9.07394 13.5416 8.00935 13.5416 6.53644L14.3229 6.5104H13.5416C13.5416 3.52081 13.7302 2.08331 17.9687 2.08331ZM6.72515 3.64628L6.5104 3.64581C3.79271 3.64581 3.65335 3.84083 3.6462 6.12191L3.64664 7.01058C3.65157 7.91784 3.68614 8.57319 3.9281 8.87498C4.20415 9.21665 5.02394 9.37498 6.5104 9.37498C7.99685 9.37498 8.81665 9.2156 9.09269 8.87394C9.37498 8.5229 9.37498 7.68956 9.37498 6.5354C9.37498 3.93102 9.37498 3.65854 6.72515 3.64628ZM18.1835 3.64628L17.9687 3.64581C15.251 3.64581 15.1117 3.84083 15.1045 6.12191L15.105 7.01058C15.1099 7.91784 15.1445 8.57319 15.3864 8.87498C15.6625 9.21665 16.4823 9.37498 17.9687 9.37498C19.4552 9.37498 20.275 9.2156 20.551 8.87394C20.8333 8.5229 20.8333 7.68956 20.8333 6.5354C20.8333 3.93102 20.8333 3.65854 18.1835 3.64628Z" fill="black"/>
</svg>
