<svg width="21" height="21" viewBox="0 0 21 21" fill="none" xmlns="http://www.w3.org/2000/svg">
    <path fill-rule="evenodd" clip-rule="evenodd" d="M10.2799 0.875275C12.7938 0.875275 15.1563 1.85265 16.9308 3.62802C20.5988 7.29602 20.5988 13.2635 16.9308 16.9315C15.1326 18.7305 12.7115 19.6825 10.2589 19.6825C8.92188 19.6825 7.57613 19.3999 6.31701 18.8172C5.94601 18.6684 5.59863 18.5284 5.34926 18.5284C5.06226 18.5302 4.67638 18.6631 4.30363 18.7918C3.53888 19.0543 2.58688 19.3815 1.88251 18.6798C1.18076 17.9772 1.50451 17.0278 1.76526 16.2639C1.89388 15.8876 2.02601 15.4992 2.02601 15.2052C2.02601 14.9637 1.90963 14.6556 1.73113 14.212C0.0922574 10.6726 0.850008 6.40702 3.62988 3.6289C5.40438 1.85352 7.76601 0.875275 10.2799 0.875275ZM10.2808 2.18777C8.11688 2.18777 6.08426 3.02952 4.55738 4.55727C2.16513 6.94777 1.51413 10.6184 2.93601 13.6923C3.14076 14.1989 3.33851 14.6924 3.33851 15.2052C3.33851 15.717 3.16263 16.2324 3.00776 16.6874C2.88001 17.0619 2.68663 17.6271 2.81088 17.7514C2.93251 17.8774 3.50126 17.6788 3.87663 17.5501C4.32726 17.3962 4.83826 17.2194 5.34488 17.2159C5.85238 17.2159 6.33101 17.4084 6.83763 17.6123C9.94126 19.0473 13.6119 18.3945 16.0033 16.004C19.1585 12.847 19.1585 7.71165 16.0033 4.5564C14.4755 3.02865 12.4438 2.18777 10.2808 2.18777ZM13.7343 9.76764C14.2173 9.76764 14.6093 10.1588 14.6093 10.6426C14.6093 11.1265 14.2173 11.5176 13.7343 11.5176C13.2513 11.5176 12.8558 11.1265 12.8558 10.6426C12.8558 10.1588 13.2434 9.76764 13.7264 9.76764H13.7343ZM10.2266 9.76764C10.7096 9.76764 11.1016 10.1588 11.1016 10.6426C11.1016 11.1265 10.7096 11.5176 10.2266 11.5176C9.7436 11.5176 9.34809 11.1265 9.34809 10.6426C9.34809 10.1588 9.73485 9.76764 10.2187 9.76764H10.2266ZM6.71854 9.76764C7.20154 9.76764 7.59354 10.1588 7.59354 10.6426C7.59354 11.1265 7.20154 11.5176 6.71854 11.5176C6.23555 11.5176 5.84004 11.1265 5.84004 10.6426C5.84004 10.1588 6.22767 9.76764 6.71067 9.76764H6.71854Z" fill="black"/>
</svg>
