<svg width="22" height="22" viewBox="0 0 22 22" fill="none" xmlns="http://www.w3.org/2000/svg">
    <path d="M18.324 17.3738C18.8346 17.3738 19.25 17.7946 19.25 18.3119C19.25 18.8302 18.8346 19.25 18.324 19.25H13.0897C12.579 19.25 12.1637 18.8302 12.1637 18.3119C12.1637 17.7946 12.579 17.3738 13.0897 17.3738H18.324ZM14.694 3.39081L16.0461 4.46489C16.6006 4.89846 16.9702 5.46999 17.0967 6.07107C17.2426 6.73227 17.0869 7.38165 16.6492 7.94332L8.59503 18.3589C8.22539 18.8319 7.68067 19.098 7.09703 19.1078L3.88703 19.1472C3.71194 19.1472 3.56603 19.029 3.52712 18.8615L2.79757 15.6984C2.67112 15.117 2.79757 14.5159 3.16721 14.0527L8.87712 6.66231C8.9744 6.54406 9.14949 6.52534 9.26621 6.61304L11.6689 8.5247C11.8245 8.6528 12.0385 8.72178 12.2622 8.69222C12.7389 8.63309 13.0599 8.19952 13.0112 7.73639C12.982 7.49989 12.8653 7.30281 12.7097 7.155C12.661 7.11559 10.3751 5.28276 10.3751 5.28276C10.2292 5.16451 10.2 4.94773 10.3168 4.8009L11.2214 3.6273C12.0579 2.55323 13.517 2.45469 14.694 3.39081Z" fill="white"/>
</svg>
