<svg width="25" height="25" viewBox="0 0 25 25" fill="none" xmlns="http://www.w3.org/2000/svg">
    <path fill-rule="evenodd" clip-rule="evenodd" d="M14.2886 15.9284C15.5427 15.9284 16.5636 16.9419 16.5636 18.1878V21.3919C16.5636 21.6597 16.7781 21.8742 17.0531 21.8805H19.0386C20.6031 21.8805 21.875 20.6242 21.875 19.0805V9.99299C21.8677 9.46174 21.6146 8.96174 21.1802 8.62945L14.3125 3.15236C13.3906 2.42216 12.1011 2.42216 11.1761 3.15445L4.35522 8.62736C3.90418 8.97007 3.65105 9.47007 3.64584 10.0107V19.0805C3.64584 20.6242 4.91772 21.8805 6.4823 21.8805H8.48647C8.76876 21.8805 8.99793 21.6565 8.99793 21.3815C8.99793 21.3211 9.00522 21.2607 9.01772 21.2034V18.1878C9.01772 16.9492 10.0323 15.9367 11.2771 15.9284H14.2886ZM19.0386 23.443H17.0344C15.8865 23.4159 15.0011 22.5149 15.0011 21.3919V18.1878C15.0011 17.8034 14.6813 17.4909 14.2886 17.4909H11.2823C10.8979 17.493 10.5802 17.8065 10.5802 18.1878V21.3815C10.5802 21.4597 10.5698 21.5347 10.5479 21.6055C10.4354 22.6367 9.55418 23.443 8.48647 23.443H6.4823C4.05626 23.443 2.08334 21.4857 2.08334 19.0805V10.0034C2.09376 8.96799 2.57084 8.02007 3.3948 7.39611L10.2021 1.93257C11.7011 0.745073 13.7896 0.745073 15.2854 1.93049L22.1417 7.39924C22.9469 8.01278 23.424 8.95861 23.4375 9.98153V19.0805C23.4375 21.4857 21.4646 23.443 19.0386 23.443Z" fill="black"/>
</svg>
