<svg width="65" height="54" viewBox="0 0 65 54" fill="none" xmlns="http://www.w3.org/2000/svg">
    <path d="M24.9178 3.47914C20.0838 1.17119 13.3272 0.0406324 4.28142 0.000494164C3.42831 -0.0110963 2.59193 0.237669 1.88383 0.713617C1.30261 1.10648 0.826835 1.63614 0.498349 2.25602C0.169862 2.87589 -0.00126885 3.56699 7.08287e-06 4.26853V42.547C7.08287e-06 45.1346 1.84101 47.0867 4.28142 47.0867C13.7902 47.0867 23.3284 47.9751 29.0414 53.375C29.1195 53.4492 29.2177 53.4988 29.3239 53.5177C29.43 53.5365 29.5393 53.5237 29.6382 53.481C29.7371 53.4382 29.8213 53.3673 29.8803 53.2771C29.9392 53.1869 29.9704 53.0814 29.9699 52.9736V7.87027C29.9701 7.56596 29.905 7.26515 29.779 6.98816C29.653 6.71118 29.469 6.46448 29.2394 6.26474C27.9308 5.146 26.4771 4.20901 24.9178 3.47914Z" fill="#1E1E1E"/>
    <path d="M62.3373 0.709598C61.6288 0.234835 60.7924 -0.0125414 59.9397 0.000489577C50.8939 0.0406278 44.1373 1.16584 39.3033 3.47914C37.7441 4.20768 36.2901 5.14283 34.9804 6.25938C34.7513 6.45947 34.5678 6.70627 34.442 6.9832C34.3162 7.26012 34.2512 7.56076 34.2512 7.86491V52.9709C34.2512 53.0745 34.2817 53.1758 34.3389 53.262C34.3962 53.3483 34.4777 53.4158 34.5732 53.4559C34.6686 53.4961 34.7738 53.5072 34.8755 53.4878C34.9772 53.4684 35.071 53.4194 35.145 53.3469C38.5795 49.9351 44.6069 47.0826 59.945 47.084C61.0806 47.084 62.1695 46.6329 62.9725 45.83C63.7754 45.0271 64.2265 43.9381 64.2265 42.8026V4.26986C64.228 3.56694 64.0565 2.87445 63.727 2.25353C63.3975 1.6326 62.9202 1.10235 62.3373 0.709598Z" fill="#1E1E1E"/>
</svg>
