<svg width="20" height="20" viewBox="0 0 20 20" fill="none" xmlns="http://www.w3.org/2000/svg">
    <path fill-rule="evenodd" clip-rule="evenodd" d="M9.00408 12.3482L12.0516 17.2923C12.1849 17.509 12.3932 17.5065 12.4774 17.4948C12.5616 17.4832 12.7641 17.4315 12.8374 17.1857L16.6482 4.31482C16.7149 4.08732 16.5924 3.93232 16.5374 3.87732C16.4841 3.82232 16.3316 3.70482 16.1107 3.76732L3.23075 7.53899C2.98658 7.61065 2.93325 7.81565 2.92158 7.89982C2.90991 7.98565 2.90658 8.19815 3.12241 8.33399L8.12325 11.4615L12.5416 6.99649C12.7841 6.75149 13.1799 6.74899 13.4257 6.99149C13.6716 7.23399 13.6732 7.63065 13.4307 7.87565L9.00408 12.3482ZM12.4124 18.7498C11.8324 18.7498 11.3007 18.4548 10.9874 17.9482L7.75658 12.7057L2.45991 9.39315C1.88908 9.03565 1.59075 8.39899 1.68325 7.72982C1.77491 7.06065 2.23408 6.52899 2.87908 6.33982L15.7591 2.56815C16.3516 2.39482 16.9866 2.55899 17.4232 2.99399C17.8599 3.43315 18.0224 4.07482 17.8457 4.66982L14.0349 17.5398C13.8441 18.1873 13.3107 18.6448 12.6432 18.734C12.5649 18.744 12.4891 18.7498 12.4124 18.7498Z" fill="black"/>
</svg>
